<svg width="32" height="24" fill="none" xmlns="http://www.w3.org/2000/svg"><path fill-rule="evenodd" clip-rule="evenodd" d="M31.657 11.058l-7.55-8.644a1.147 1.147 0 0 0-1.764 0 1.463 1.463 0 0 0 0 1.884L29.07 12l-6.727 7.702a1.463 1.463 0 0 0 0 1.884 1.147 1.147 0 0 0 1.765 0l7.549-8.644a1.461 1.461 0 0 0 0-1.884zm-22-8.644a1.147 1.147 0 0 0-1.764 0l-7.55 8.644a1.464 1.464 0 0 0 0 1.884l7.55 8.644a1.147 1.147 0 0 0 1.763 0 1.463 1.463 0 0 0 0-1.884L2.93 12l6.726-7.702a1.463 1.463 0 0 0 0-1.884zM18.442.036a1.067 1.067 0 0 0-1.306.753l-5.86 21.87a1.067 1.067 0 0 0 2.062.551l5.859-21.867a1.067 1.067 0 0 0-.755-1.307z" fill="#000"/></svg>